<svg id="Layer_1" data-name="Layer 1" xmlns="http://www.w3.org/2000/svg" viewBox="0 0 141.73 141.73"><defs><style>.cls-1{fill:#fff;}.cls-2{fill:#7f72b1;}.cls-3{fill:#4c3e8b;}.cls-4{fill:#21236c;}.cls-5{fill:#ffe900;}</style></defs><title>tigna-white</title><path d="M162.91,27.68a35.87,35.87,0,0,0-7.46-16L142.74-32,133.1,1.09A116.73,116.73,0,0,0,114-.73,93.14,93.14,0,0,0,86.52,3.73H39.63L57.19,27.21a16.93,16.93,0,0,0-.86,5.26c0,7.64,5,16.71,12.29,21.81,7.6,5.3,19.8,6.53,29.58,6.56,4.45,3.62,12.59,6,21.9,6s17.6-2.47,22-6.13a16.72,16.72,0,0,0,5-.22C159,58.17,166,43.47,162.91,27.68Z" transform="translate(-39.63 32.01)"/><path class="cls-1" d="M178.66,105H178a0.49,0.49,0,0,0-.54.48L177.1,108c0,0.23,0,.32.25,0.32h0.37c0.24,0,.3-0.09.33-0.33l0.1-.72h0.12l0.21,0.74a0.35,0.35,0,0,0,.42.31h0.38c0.21,0,.21-0.13.15-0.33l-0.27-.88a1.15,1.15,0,0,0,.66-1.11A1,1,0,0,0,178.66,105Zm-0.18,1.51h-0.22l0.09-.67h0.18a0.31,0.31,0,0,1,.38.28A0.38,0.38,0,0,1,178.48,106.54Z" transform="translate(-39.63 32.01)"/><path class="cls-1" d="M178.76,103.81a3.23,3.23,0,0,0-3.37,3.38,2.38,2.38,0,0,0,2.59,2.53,3.22,3.22,0,0,0,3.39-3.35A2.41,2.41,0,0,0,178.76,103.81Zm-0.67,5.1a1.67,1.67,0,0,1-1.79-1.82,2.3,2.3,0,0,1,2.35-2.47,1.7,1.7,0,0,1,1.81,1.85A2.29,2.29,0,0,1,178.09,108.91Z" transform="translate(-39.63 32.01)"/><path class="cls-1" d="M56.51,72.77c-11.83,0-16.87,8.24-16.87,23.12,0,9.58,3.94,13.83,12,13.83,10.69,0,14-6.29,14.88-13.23L67,92.69a2,2,0,0,0-2.15-2.35H56.56c-1.9,0-2.6,1.15-2.8,2.7l-0.15,1.1a1.92,1.92,0,0,0,2.15,2.35h1.7l0,0.35c-0.4,2.85-1.7,4-4.59,4-2,0-3.1-1.85-3.1-6,0-6.54,1.2-13.28,5.64-13.28,1.9,0,3.29,1.75,3.29,4.49,0,1.9.75,2.1,2.55,1.8l4.29-.7c2.15-.35,2.6-1,2.6-3.64C68.09,77.52,65.55,72.77,56.51,72.77Z" transform="translate(-39.63 32.01)"/><path class="cls-1" d="M117.17,100.63c-2.15.2-5.19,0.5-7.69,0.5-9,0-13.58-1.1-16.13-4l-1.75-1.9c3.59-2.2,6.74-5.54,6.74-11.33,0-8.09-5.14-10.68-12.88-10.68H75.23a2.55,2.55,0,0,0-2.7,2.3l-4.1,31.25a2.07,2.07,0,0,0,2,2.6h5.09a2.91,2.91,0,0,0,2.8-2.65l1.15-8.89h2.3l3.94,5c3.09,3.89,7.74,6.94,21.12,6.94a80.83,80.83,0,0,0,9.14-.55,2.94,2.94,0,0,0,2.74-2.65l0.5-3.69C119.41,101.53,118.86,100.48,117.17,100.63ZM83.92,90.15H80.52l1.1-8.39h2.95c2.65,0,4.64,1.15,4.64,3.64C89.21,88.65,86.81,90.15,83.92,90.15Z" transform="translate(-39.63 32.01)"/><path class="cls-1" d="M121.36,73.17h-3.64A2.58,2.58,0,0,0,115,75.52L113.32,88c-0.35,2.7-1.2,4.09-2.9,4.09s-2.25-1.4-1.9-4.09l1.6-12.18a2,2,0,0,0-2-2.6h-3.64a2.82,2.82,0,0,0-2.75,2.6l-1.55,11.68c-1,7.54,1.7,11.68,9.34,11.68S120.91,95,121.91,87.45l1.55-11.73A2,2,0,0,0,121.36,73.17Z" transform="translate(-39.63 32.01)"/><path class="cls-1" d="M137.88,81.11a3.39,3.39,0,0,1,3.74,3.74c0,0.9.75,1,2,.8l4.94-.8a2.53,2.53,0,0,0,2.4-2.75c-0.2-5.74-4-9.34-12.28-9.34-9.79,0-14.33,6.74-14.33,12.58,0,11.38,14.73,8.74,14.73,13,0,1.35-.6,3.1-3.89,3.1-2.65,0-3.54-1.7-3.54-3.2s-1-1.4-2.45-1.15l-4.59.75a2.39,2.39,0,0,0-2.25,2.75c0.3,4.79,3.45,9.24,11.48,9.14,11.53-.1,15.28-5.54,15.28-11.68,0-11.28-14.68-9.48-14.68-13.78C134.49,82.51,135.54,81.11,137.88,81.11Z" transform="translate(-39.63 32.01)"/><path class="cls-1" d="M181.37,83.86c0-8.09-5.14-10.68-12.88-10.68H157.75a2.73,2.73,0,0,0-2.7,2.3L151,106.67c-0.2,1.6.65,2.65,2.1,2.65h5a2.79,2.79,0,0,0,2.85-2.6l1-8H165C174.23,98.73,181.37,93.84,181.37,83.86Zm-14.43,6.29H163l1.1-8.39h3.44c2.7,0,4.64,1.15,4.64,3.64C172.23,88.65,169.83,90.15,166.94,90.15Z" transform="translate(-39.63 32.01)"/><path class="cls-2" d="M160.1,27.23c-1.42-7.43-5-14-9.88-18.15L150.09,9,150,8.91a13.07,13.07,0,0,0-1.57-1,12.94,12.94,0,0,1-5.83,6c-0.21-3.36-3.53-7.62-6-10.36-1.64-.37-3.27-0.69-4.86-1A25.72,25.72,0,0,1,126.46,19C122.25,11.52,106,5.21,99.56,2.95,97,3.48,94.63,4.1,92.44,4.78a19.42,19.42,0,0,1,2.34,12c-3.06-1.81-8.34-2-13.32-1.68a41.76,41.76,0,0,0-1.07,39C85.72,56,92.68,56.93,101,56.93a32.33,32.33,0,0,0,24-10.28L127.3,44l1.94,3c4,6.21,9.77,9.92,15.32,9.92h0a12.79,12.79,0,0,0,2.57-.26C157,54.63,162.8,41.42,160.1,27.23ZM101.33,46.64a2.42,2.42,0,0,1-2.62-1.37,1.51,1.51,0,0,1,1.17-2.12,2.43,2.43,0,0,1,2.62,1.37A1.51,1.51,0,0,1,101.33,46.64Zm-1.2-21.36a4.76,4.76,0,0,1,.81-2.66l8.66,1.72A4.78,4.78,0,1,1,100.14,25.28Zm9.16,28.53a2.43,2.43,0,0,1-2.62-1.37,1.51,1.51,0,0,1,1.17-2.12,2.42,2.42,0,0,1,2.62,1.37A1.51,1.51,0,0,1,109.29,53.8ZM111,44.7a2.42,2.42,0,0,1-2.62-1.37,1.51,1.51,0,0,1,1.17-2.12,2.42,2.42,0,0,1,2.62,1.37A1.51,1.51,0,0,1,111,44.7Zm25.89-1.23a1.21,1.21,0,0,1-.94-1.7,2,2,0,0,1,2.09-1.1,1.2,1.2,0,0,1,.93,1.7A1.94,1.94,0,0,1,136.89,43.47Zm3.46,6.18a1.94,1.94,0,0,1-2.09,1.1,1.2,1.2,0,0,1-.93-1.7,1.94,1.94,0,0,1,2.09-1.1A1.21,1.21,0,0,1,140.35,49.65Zm0-21.15a3.59,3.59,0,0,1-3.58-3.59,3.66,3.66,0,0,1,.07-0.71l6.49-1.29A3.59,3.59,0,0,1,140.36,28.5Zm6.36,15.42a1.94,1.94,0,0,1-2.09,1.1,1.2,1.2,0,0,1-.93-1.7,1.94,1.94,0,0,1,2.09-1.1A1.21,1.21,0,0,1,146.72,43.92Z" transform="translate(-39.63 32.01)"/><path class="cls-3" d="M125.56,49.65a36.41,36.41,0,0,1-19,10.36c3.82,2.08,9.38,3.39,15.57,3.39,6.38,0,12.08-1.39,15.91-3.58A25.77,25.77,0,0,1,125.56,49.65ZM71.23,16.49c-5.19,4.68-8,10-8,15,0,6.8,4.46,15,10.62,19.44a25,25,0,0,0,6.58,3.27,41.76,41.76,0,0,1,1.07-39A89.28,89.28,0,0,0,71.23,16.49Z" transform="translate(-39.63 32.01)"/><path class="cls-4" d="M133.26,36.17a1,1,0,0,0-.12-0.29c-0.25-.56-1.12-0.62-2.17-0.7s-2.25-.11-3.61-0.11-2.64,0-3.61.11-2,.14-2.2.79a0.7,0.7,0,0,0,0,.15c-0.12.55,0.19,0.87,1.2,2,0.52,0.56,1.17,1.26,1.77,2s1.09,1.48,1.43,2c0.56,0.84.85,1.27,1.42,1.27h0.06c0.89,0,3.09-1.79,4.27-3.25S133.45,36.9,133.26,36.17Z" transform="translate(-39.63 32.01)"/><path class="cls-5" d="M109.6,24.34a4.78,4.78,0,1,1-8.66-1.72L89.68,20.37a13.76,13.76,0,1,0,26.38,5.48c0-.08,0-0.16,0-0.24Z" transform="translate(-39.63 32.01)"/><path class="cls-5" d="M151.79,21.23l-8.45,1.68a3.59,3.59,0,1,1-6.56,2,3.66,3.66,0,0,1,.07-0.71l1-.2L132,25.17c0,0.06,0,.12,0,0.18A10.32,10.32,0,1,0,151.79,21.23Z" transform="translate(-39.63 32.01)"/><path class="cls-1" d="M106,23.62l-1.51-.3A2,2,0,1,0,106,23.62Zm34.63-.17-1.13.22A1.49,1.49,0,1,0,140.66,23.45Z" transform="translate(-39.63 32.01)"/></svg>